<?xml version="1.0" encoding="UTF-8" ?>
<!DOCTYPE svg PUBLIC "-//W3C//DTD SVG 1.1//EN" "http://www.w3.org/Graphics/SVG/1.1/DTD/svg11.dtd">
<svg width="512pt" height="512pt" viewBox="0 0 512 512" version="1.1" xmlns="http://www.w3.org/2000/svg">
<path fill="#f6f1f1" d=" M 0.00 0.00 L 512.00 0.00 L 512.00 512.00 L 0.00 512.00 L 0.00 0.00 Z" />
<path fill="#721919" d=" M 49.77 11.21 C 73.44 -2.34 101.96 1.58 128.00 1.00 C 201.22 1.16 274.49 0.68 347.69 1.22 C 350.44 4.53 354.35 6.53 357.31 9.63 C 352.00 8.54 348.69 1.67 343.33 2.20 C 337.25 16.54 331.50 31.05 325.52 45.45 C 323.92 48.15 327.67 49.27 329.15 50.82 C 324.82 48.53 324.30 54.28 323.07 57.10 C 311.00 86.82 298.12 116.23 285.95 145.92 C 296.85 160.13 312.14 169.63 323.12 183.79 C 315.18 179.70 310.85 170.70 303.53 165.52 C 296.29 161.21 292.21 153.34 285.58 148.26 C 278.83 147.61 272.67 151.09 266.18 152.32 C 245.71 158.59 225.05 164.21 204.54 170.35 C 200.11 169.52 199.00 173.55 197.30 176.27 C 197.50 173.76 199.15 170.38 196.24 168.73 C 176.04 149.30 158.63 127.23 138.55 107.79 C 138.51 106.35 139.23 104.50 137.23 103.78 C 128.38 94.90 120.68 84.95 111.88 76.02 C 110.94 76.26 110.02 76.55 109.12 76.90 C 90.92 53.65 67.37 34.65 49.77 11.21 Z" />
<path fill="#4f0f10" d=" M 347.69 1.22 C 374.82 1.44 402.17 -0.27 429.20 1.94 C 430.39 2.12 431.58 2.13 432.79 1.97 C 449.01 4.36 465.48 10.42 477.82 21.49 C 478.40 23.28 479.68 24.87 481.69 25.01 C 492.90 34.14 500.69 47.47 505.87 61.05 C 512.26 81.10 511.05 102.41 510.91 123.15 C 508.29 121.35 505.79 119.27 502.84 118.04 L 502.20 117.75 C 502.26 115.90 500.65 114.62 498.87 115.04 L 498.11 114.97 C 497.76 113.39 496.71 111.82 494.88 112.14 C 493.57 111.52 492.30 110.83 491.09 110.06 C 488.78 105.73 483.99 103.23 479.73 101.15 L 479.05 100.90 C 478.73 99.33 477.72 97.72 475.88 98.14 C 473.77 97.93 472.45 96.37 471.13 94.91 C 471.44 92.97 469.71 91.53 467.86 92.23 L 467.20 91.92 C 465.74 88.94 463.14 86.77 459.84 86.16 L 459.14 85.85 C 457.69 82.88 455.06 80.79 451.83 80.05 L 451.16 79.80 C 451.38 77.88 449.61 76.55 447.82 77.24 C 446.41 76.74 445.11 76.03 443.92 75.15 C 443.66 73.54 442.44 72.39 440.86 72.10 C 440.48 71.78 439.72 71.13 439.35 70.81 C 438.04 68.23 435.31 67.19 432.87 66.00 C 432.63 65.78 432.16 65.35 431.92 65.13 C 431.75 63.60 430.35 62.57 428.85 63.01 L 428.08 62.97 C 427.77 61.40 426.75 59.84 424.94 60.13 L 424.22 59.91 C 422.35 57.29 419.94 54.96 416.73 54.15 L 416.04 53.90 C 415.66 52.38 414.78 50.76 412.96 50.95 L 412.27 50.81 C 412.09 49.01 410.37 48.30 408.80 48.13 L 408.17 47.91 C 408.37 46.07 406.81 44.70 405.02 45.02 L 404.41 44.72 C 401.02 41.38 397.13 38.26 392.89 36.10 L 392.19 35.80 C 389.43 32.45 385.79 29.82 381.76 28.23 L 381.22 27.81 C 380.08 24.49 376.79 23.22 373.73 22.26 L 373.24 21.78 C 369.01 17.20 363.44 13.17 357.94 10.00 L 357.31 9.63 C 354.35 6.53 350.44 4.53 347.69 1.22 Z" />
<path fill="#d13c44" d=" M 429.20 1.94 C 429.00 0.22 433.01 0.23 432.79 1.97 C 431.58 2.13 430.39 2.12 429.20 1.94 Z" />
<path fill="#d13c44" d=" M 343.33 2.20 C 348.69 1.67 352.00 8.54 357.31 9.63 L 357.94 10.00 C 362.19 14.99 367.35 18.91 373.24 21.78 L 373.73 22.26 C 375.79 24.64 378.59 26.16 381.22 27.81 L 381.76 28.23 C 384.62 31.46 388.08 34.32 392.19 35.80 L 392.89 36.10 C 395.75 40.08 399.76 43.14 404.41 44.72 L 405.02 45.02 C 405.46 46.51 406.58 47.70 408.17 47.91 L 408.80 48.13 C 408.86 49.98 410.62 50.81 412.27 50.81 L 412.96 50.95 C 413.19 52.55 414.18 54.19 416.04 53.90 L 416.73 54.15 C 418.85 56.45 421.03 59.17 424.22 59.91 L 424.94 60.13 C 425.35 61.60 426.22 63.37 428.08 62.97 L 428.85 63.01 C 429.18 64.42 430.48 65.27 431.92 65.13 C 432.16 65.35 432.63 65.78 432.87 66.00 C 434.07 68.69 436.85 69.67 439.35 70.81 C 439.72 71.13 440.48 71.78 440.86 72.10 C 440.67 73.91 442.13 75.28 443.92 75.15 C 445.11 76.03 446.41 76.74 447.82 77.24 C 448.51 78.56 449.63 79.61 451.16 79.80 L 451.83 80.05 C 454.06 82.19 456.19 84.70 459.14 85.85 L 459.84 86.16 C 462.13 88.25 464.27 90.72 467.20 91.92 L 467.86 92.23 C 468.54 93.55 469.66 94.56 471.13 94.91 C 472.45 96.37 473.77 97.93 475.88 98.14 C 476.28 99.65 477.24 101.19 479.05 100.90 L 479.73 101.15 C 482.80 104.94 487.04 107.45 491.09 110.06 C 492.30 110.83 493.57 111.52 494.88 112.14 C 495.35 113.60 496.25 115.33 498.11 114.97 L 498.87 115.04 C 499.38 116.53 500.60 117.61 502.20 117.75 L 502.84 118.04 C 504.84 121.17 508.11 122.93 511.02 125.08 C 510.79 165.30 511.36 205.56 510.77 245.76 C 494.77 306.49 476.03 366.55 459.23 427.09 C 456.47 432.71 457.70 441.09 451.95 444.90 C 450.07 445.40 448.19 445.88 446.29 446.28 C 443.02 445.80 439.80 446.53 436.87 447.98 C 433.79 449.20 430.55 449.94 427.26 450.23 C 424.33 449.99 421.49 450.74 418.87 451.98 C 416.09 453.02 413.21 453.76 410.29 454.28 C 407.02 453.80 403.80 454.53 400.87 455.98 C 397.79 457.19 394.55 457.93 391.27 458.25 C 387.31 458.12 383.11 458.66 379.79 460.96 C 377.65 461.54 375.46 461.95 373.27 462.27 C 369.31 462.11 365.11 462.65 361.79 464.96 C 359.64 465.54 357.46 465.93 355.26 466.22 C 352.69 466.27 350.20 466.95 347.85 467.92 C 343.33 469.25 338.78 470.47 334.14 471.26 C 332.73 470.60 330.94 470.51 329.89 471.83 C 326.79 473.02 323.59 473.98 320.27 474.26 C 315.96 474.01 311.69 475.14 307.77 476.87 C 304.65 477.87 301.47 478.72 298.23 479.26 C 295.24 479.20 292.24 479.10 289.79 480.95 C 287.65 481.55 285.46 481.94 283.27 482.24 C 279.32 482.41 275.36 483.20 271.77 484.87 C 268.62 485.90 265.40 486.72 262.14 487.27 C 260.76 486.59 258.90 486.46 257.98 487.92 L 257.23 488.14 C 254.57 487.87 251.89 488.16 249.79 489.95 C 247.97 490.45 246.14 490.90 244.29 491.29 C 241.32 490.77 238.37 491.31 235.89 493.07 C 234.05 493.62 232.16 493.96 230.27 494.26 C 226.32 494.50 222.10 494.48 218.74 496.84 C 216.59 497.33 214.45 497.84 212.28 498.25 C 208.31 498.09 204.17 498.73 200.77 500.90 C 197.60 501.72 194.42 502.52 191.22 503.22 C 187.95 503.05 184.70 503.29 181.88 505.04 C 180.05 505.61 178.16 505.95 176.26 506.24 C 173.68 506.29 171.17 506.95 168.76 507.86 L 168.02 508.08 C 166.62 507.57 164.80 507.50 163.98 508.99 C 161.91 509.59 159.84 510.19 157.77 510.78 C 147.59 511.09 137.36 511.24 127.17 510.89 C 86.51 447.07 46.48 382.90 6.03 318.95 C 3.88 315.83 2.11 312.45 1.22 308.74 C 1.13 300.54 0.29 292.17 1.35 284.02 C 2.29 282.88 2.94 281.50 2.95 280.01 C 4.67 277.58 6.28 275.05 7.17 272.19 C 8.50 271.65 9.32 270.36 9.02 268.92 C 11.20 264.21 13.89 259.77 16.29 255.19 C 17.22 254.29 17.76 253.09 17.93 251.82 C 18.36 250.98 18.78 250.14 19.20 249.29 C 20.99 249.25 21.55 247.43 21.02 245.97 C 21.38 245.05 21.73 244.14 22.08 243.23 C 26.03 239.22 27.66 233.73 29.82 228.69 C 30.32 227.81 30.80 226.94 31.28 226.06 C 32.55 224.56 33.42 222.81 33.83 220.89 C 35.32 218.37 36.80 215.85 38.13 213.24 C 39.78 210.98 41.27 208.58 42.03 205.86 C 42.47 204.99 42.90 204.12 43.34 203.25 C 45.57 202.53 45.78 199.98 45.90 198.00 C 46.35 197.08 46.78 196.16 47.21 195.24 C 48.98 192.47 50.58 189.60 51.87 186.58 L 52.22 185.94 C 53.57 184.54 54.45 182.81 54.89 180.92 C 55.72 179.34 56.51 177.75 57.24 176.13 C 58.84 175.22 59.64 173.57 59.81 171.78 L 59.98 171.09 C 61.18 170.42 61.77 169.15 61.95 167.85 C 62.74 166.35 63.51 164.84 64.24 163.31 C 66.02 163.24 66.55 161.41 66.00 159.96 C 66.40 159.05 66.80 158.14 67.20 157.23 C 68.64 154.86 69.89 152.38 70.88 149.79 L 71.19 149.15 C 73.30 148.96 74.20 146.78 73.92 144.89 L 73.97 144.12 C 75.18 143.46 75.75 142.15 75.94 140.84 C 77.13 138.67 78.27 136.48 79.36 134.26 C 81.56 133.50 81.78 130.98 81.93 129.01 C 84.27 125.20 86.44 121.29 88.36 117.26 C 90.57 116.48 90.79 113.93 90.92 111.93 L 91.20 111.28 C 93.25 110.81 93.55 108.62 93.87 106.88 C 94.70 105.33 95.49 103.75 96.21 102.15 C 97.21 101.32 97.77 100.11 97.97 98.85 C 98.76 97.29 99.52 95.73 100.23 94.14 C 101.90 93.27 102.63 91.55 102.70 89.73 C 103.87 87.59 105.23 85.55 106.34 83.38 C 108.03 83.15 108.52 81.43 108.04 79.98 C 108.41 78.96 108.77 77.93 109.12 76.90 C 110.02 76.55 110.94 76.26 111.88 76.02 C 120.68 84.95 128.38 94.90 137.23 103.78 C 139.23 104.50 138.51 106.35 138.55 107.79 C 138.02 108.87 137.49 109.93 136.95 111.00 C 135.10 111.63 134.30 113.41 134.31 115.26 C 133.27 119.46 130.95 123.11 128.63 126.69 C 126.61 127.29 126.40 129.50 126.31 131.27 C 125.90 132.52 125.47 133.78 125.02 135.02 C 123.15 135.60 122.33 137.37 122.21 139.20 C 121.04 143.38 118.95 147.15 116.72 150.84 C 115.13 151.77 114.40 153.44 114.24 155.22 C 113.79 156.16 113.34 157.10 112.89 158.04 C 111.37 159.38 110.47 161.20 110.29 163.22 C 109.55 164.81 108.78 166.39 107.99 167.96 C 106.77 168.61 106.17 169.94 106.20 171.29 C 105.77 172.21 105.33 173.12 104.89 174.04 C 103.37 175.38 102.47 177.19 102.28 179.21 C 101.82 180.16 101.35 181.10 100.88 182.04 C 99.37 183.39 98.47 185.20 98.28 187.21 C 97.82 188.16 97.35 189.10 96.88 190.04 C 95.39 191.39 94.49 193.19 94.25 195.19 C 88.32 207.52 82.21 219.77 75.97 231.95 C 74.75 232.61 74.17 233.95 74.23 235.31 C 73.51 236.84 72.74 238.34 71.96 239.84 C 70.10 239.62 69.38 241.54 70.00 243.04 C 68.16 247.40 66.35 251.82 63.86 255.87 C 61.59 256.06 61.35 258.49 61.36 260.30 C 59.81 264.28 58.13 268.23 55.86 271.87 C 53.57 272.05 53.33 274.50 53.42 276.32 C 52.68 278.37 51.74 280.34 50.61 282.21 C 49.57 283.68 48.42 285.40 50.04 286.95 C 86.45 339.89 123.07 392.70 159.49 445.65 C 160.66 445.53 162.99 445.30 164.15 445.18 C 167.43 444.51 170.63 443.52 173.90 442.78 C 176.02 442.80 178.12 442.28 180.00 441.28 C 184.66 440.11 189.43 439.31 194.00 437.78 C 196.18 438.49 198.96 438.67 200.09 436.24 C 202.65 435.94 205.19 435.48 207.70 434.86 C 210.95 434.21 214.31 433.80 217.28 432.23 C 226.28 430.46 235.26 428.48 244.06 425.87 C 246.24 426.49 248.97 426.62 250.10 424.23 C 259.46 422.41 268.85 420.50 278.00 417.77 C 280.18 418.50 282.94 418.66 284.11 416.26 C 287.41 415.76 290.63 414.86 293.85 413.94 C 296.47 414.10 299.10 413.75 301.25 412.12 C 303.46 411.64 305.67 411.15 307.90 410.78 C 310.03 410.79 312.13 410.27 314.03 409.30 C 318.70 408.20 323.42 407.27 328.00 405.82 C 330.22 406.58 332.48 405.98 334.05 404.25 C 337.75 403.69 341.38 402.77 345.00 401.83 C 347.23 402.58 349.51 401.98 351.04 400.20 C 354.70 399.49 358.40 398.87 362.01 397.86 C 364.24 398.57 366.51 397.98 368.04 396.20 C 377.04 394.40 385.99 392.30 394.88 390.01 C 397.11 389.64 399.36 389.31 401.54 388.64 C 424.41 316.17 447.36 243.79 470.46 171.41 C 470.86 169.25 473.18 165.61 471.19 164.16 L 470.27 163.84 C 469.50 162.53 468.36 161.50 466.90 161.06 C 466.43 160.80 465.50 160.27 465.04 160.01 C 464.55 158.53 463.41 157.43 461.90 157.04 C 461.43 156.79 460.50 156.27 460.04 156.02 C 459.55 154.53 458.41 153.42 456.89 153.04 C 456.40 152.78 455.42 152.26 454.93 152.00 C 454.09 150.32 453.24 147.93 450.95 148.07 L 450.18 147.94 C 449.53 146.53 448.38 145.47 446.89 145.05 C 446.41 144.78 445.45 144.24 444.97 143.96 C 444.18 142.14 442.81 140.51 440.74 140.22 L 440.05 139.98 C 439.16 138.34 438.25 136.12 436.05 136.13 L 435.30 135.93 C 433.63 134.11 431.89 132.31 429.67 131.18 L 429.08 130.82 C 428.43 129.44 427.33 128.25 425.72 128.14 L 425.03 127.95 C 424.20 126.16 422.83 124.57 420.80 124.23 L 420.13 123.98 C 419.54 122.54 418.40 121.45 416.89 121.04 C 416.40 120.78 415.42 120.26 414.93 120.00 C 414.09 118.29 413.21 115.94 410.91 116.05 L 410.13 115.90 C 409.16 114.18 407.79 112.61 405.77 112.21 L 405.09 111.94 C 404.21 110.20 402.81 108.77 400.95 108.11 C 400.47 107.84 399.52 107.28 399.05 107.01 C 398.55 105.53 397.41 104.43 395.90 104.04 C 395.43 103.79 394.50 103.27 394.04 103.02 C 393.55 101.53 392.41 100.43 390.90 100.04 C 390.43 99.79 389.50 99.27 389.04 99.02 C 388.60 97.47 387.37 96.34 385.74 96.22 C 383.35 94.68 381.10 92.94 379.00 91.02 C 378.69 89.43 377.77 87.67 375.86 87.99 L 375.09 87.90 C 374.20 86.18 372.79 84.78 370.95 84.12 C 370.47 83.84 369.52 83.28 369.04 83.00 C 368.52 81.51 367.38 80.26 365.73 80.14 L 365.04 79.95 C 364.22 78.17 362.80 76.76 360.94 76.11 C 360.47 75.84 359.52 75.28 359.05 75.01 C 358.54 73.53 357.41 72.43 355.89 72.04 C 355.41 71.77 354.45 71.24 353.97 70.97 C 353.20 69.16 351.84 67.54 349.80 67.22 L 349.13 66.99 C 348.56 65.54 347.40 64.45 345.88 64.08 C 344.94 63.38 344.01 62.66 343.07 61.96 C 342.53 60.50 341.39 59.42 339.86 59.09 C 338.21 58.08 336.58 57.03 334.97 55.97 C 334.24 54.15 332.81 52.75 330.96 52.11 C 330.51 51.79 329.60 51.14 329.15 50.82 C 327.67 49.27 323.92 48.15 325.52 45.45 C 331.50 31.05 337.25 16.54 343.33 2.20 Z" />
<path fill="#721919" d=" M 357.94 10.00 C 363.44 13.17 369.01 17.20 373.24 21.78 C 367.35 18.91 362.19 14.99 357.94 10.00 Z" />
<path fill="#4f0f10" d=" M 34.23 21.46 C 38.64 17.13 44.14 13.77 49.77 11.21 C 67.37 34.65 90.92 53.65 109.12 76.90 C 108.77 77.93 108.41 78.96 108.04 79.98 C 106.71 80.55 106.15 82.01 106.34 83.38 C 105.23 85.55 103.87 87.59 102.70 89.73 C 100.63 90.09 99.82 92.26 100.23 94.14 C 99.52 95.73 98.76 97.29 97.97 98.85 C 96.01 98.59 95.38 100.69 96.21 102.15 C 95.49 103.75 94.70 105.33 93.87 106.88 C 91.64 107.11 91.39 109.50 91.20 111.28 L 90.92 111.93 C 88.79 112.87 88.41 115.17 88.36 117.26 C 86.44 121.29 84.27 125.20 81.93 129.01 C 79.75 129.87 79.40 132.19 79.36 134.26 C 78.27 136.48 77.13 138.67 75.94 140.84 C 74.07 140.70 73.40 142.61 73.97 144.12 L 73.92 144.89 C 72.19 145.66 71.41 147.36 71.19 149.15 L 70.88 149.79 C 69.36 152.11 68.05 154.57 67.20 157.23 C 66.80 158.14 66.40 159.05 66.00 159.96 C 64.75 160.60 64.17 161.95 64.24 163.31 C 63.51 164.84 62.74 166.35 61.95 167.85 C 60.08 167.66 59.40 169.58 59.98 171.09 L 59.81 171.78 C 57.65 171.98 56.83 174.24 57.24 176.13 C 56.51 177.75 55.72 179.34 54.89 180.92 C 52.33 181.05 51.50 183.82 52.22 185.94 L 51.87 186.58 C 48.78 188.33 48.39 192.22 47.21 195.24 C 46.78 196.16 46.35 197.08 45.90 198.00 C 43.76 198.89 43.41 201.19 43.34 203.25 C 42.90 204.12 42.47 204.99 42.03 205.86 C 40.01 207.86 37.86 210.16 38.13 213.24 C 36.80 215.85 35.32 218.37 33.83 220.89 C 31.28 221.15 30.47 223.92 31.28 226.06 C 30.80 226.94 30.32 227.81 29.82 228.69 C 25.76 232.40 24.15 238.21 22.08 243.23 C 21.73 244.14 21.38 245.05 21.02 245.97 C 19.77 246.59 19.17 247.94 19.20 249.29 C 18.78 250.14 18.36 250.98 17.93 251.82 C 15.96 251.60 15.39 253.76 16.29 255.19 C 13.89 259.77 11.20 264.21 9.02 268.92 C 7.49 269.20 6.62 270.71 7.17 272.19 C 6.28 275.05 4.67 277.58 2.95 280.01 C 2.46 280.30 1.48 280.87 0.99 281.16 C 1.59 214.10 -0.16 146.97 1.88 79.97 C 4.48 58.70 14.84 37.67 31.29 24.07 C 32.80 24.01 33.86 22.86 34.23 21.46 Z" />
<path fill="#721919" d=" M 31.29 24.07 C 30.62 22.62 32.85 20.64 34.23 21.46 C 33.86 22.86 32.80 24.01 31.29 24.07 Z" />
<path fill="#721919" d=" M 477.82 21.49 C 479.58 21.02 481.88 23.28 481.69 25.01 C 479.68 24.87 478.40 23.28 477.82 21.49 Z" />
<path fill="#721919" d=" M 373.73 22.26 C 376.79 23.22 380.08 24.49 381.22 27.81 C 378.59 26.16 375.79 24.64 373.73 22.26 Z" />
<path fill="#721919" d=" M 381.76 28.23 C 385.79 29.82 389.43 32.45 392.19 35.80 C 388.08 34.32 384.62 31.46 381.76 28.23 Z" />
<path fill="#721919" d=" M 392.89 36.10 C 397.13 38.26 401.02 41.38 404.41 44.72 C 399.76 43.14 395.75 40.08 392.89 36.10 Z" />
<path fill="#721919" d=" M 405.02 45.02 C 406.81 44.70 408.37 46.07 408.17 47.91 C 406.58 47.70 405.46 46.51 405.02 45.02 Z" />
<path fill="#721919" d=" M 408.80 48.13 C 410.37 48.30 412.09 49.01 412.27 50.81 C 410.62 50.81 408.86 49.98 408.80 48.13 Z" />
<path fill="#4f0f10" d=" M 323.07 57.10 C 324.30 54.28 324.82 48.53 329.15 50.82 C 329.60 51.14 330.51 51.79 330.96 52.11 C 330.89 54.39 332.68 56.16 334.97 55.97 C 336.58 57.03 338.21 58.08 339.86 59.09 C 339.61 60.98 341.22 62.39 343.07 61.96 C 344.01 62.66 344.94 63.38 345.88 64.08 C 345.64 65.99 347.27 67.40 349.13 66.99 L 349.80 67.22 C 350.02 69.40 351.72 71.09 353.97 70.97 C 354.45 71.24 355.41 71.77 355.89 72.04 C 355.61 73.93 357.19 75.38 359.05 75.01 C 359.52 75.28 360.47 75.84 360.94 76.11 C 360.91 78.40 362.72 80.19 365.04 79.95 L 365.73 80.14 C 365.68 81.97 367.24 83.27 369.04 83.00 C 369.52 83.28 370.47 83.84 370.95 84.12 C 370.93 86.40 372.74 88.28 375.09 87.90 L 375.86 87.99 C 376.25 89.53 377.20 91.09 379.00 91.02 C 381.10 92.94 383.35 94.68 385.74 96.22 C 385.72 98.03 387.26 99.32 389.04 99.02 C 389.50 99.27 390.43 99.79 390.90 100.04 C 390.61 101.93 392.18 103.37 394.04 103.02 C 394.50 103.27 395.43 103.79 395.90 104.04 C 395.61 105.93 397.19 107.38 399.05 107.01 C 399.52 107.28 400.47 107.84 400.95 108.11 C 400.92 110.42 402.76 112.21 405.09 111.94 L 405.77 112.21 C 406.06 114.42 407.79 116.20 410.13 115.90 L 410.91 116.05 C 411.44 118.02 412.60 120.04 414.93 120.00 C 415.42 120.26 416.40 120.78 416.89 121.04 C 416.61 122.96 418.25 124.39 420.13 123.98 L 420.80 124.23 C 421.04 126.41 422.75 128.13 425.03 127.95 L 425.72 128.14 C 425.62 130.01 427.27 131.33 429.08 130.82 L 429.67 131.18 C 430.88 133.42 432.45 135.81 435.30 135.93 L 436.05 136.13 C 436.45 138.15 437.68 140.18 440.05 139.98 L 440.74 140.22 C 441.04 142.38 442.71 144.07 444.97 143.96 C 445.45 144.24 446.41 144.78 446.89 145.05 C 446.61 146.99 448.30 148.42 450.18 147.94 L 450.95 148.07 C 451.45 150.05 452.61 152.04 454.93 152.00 C 455.42 152.26 456.40 152.78 456.89 153.04 C 456.61 154.92 458.18 156.37 460.04 156.02 C 460.50 156.27 461.43 156.79 461.90 157.04 C 461.61 158.93 463.18 160.37 465.04 160.01 C 465.50 160.27 466.43 160.80 466.90 161.06 C 466.59 163.04 468.37 164.47 470.27 163.84 L 471.19 164.16 C 470.40 167.85 465.98 167.12 463.12 168.20 C 428.43 177.90 393.86 187.78 359.10 197.23 C 353.73 198.74 348.13 201.37 342.61 200.40 C 335.03 196.51 331.66 187.31 323.86 184.09 L 323.12 183.79 C 312.14 169.63 296.85 160.13 285.95 145.92 C 298.12 116.23 311.00 86.82 323.07 57.10 Z" />
<path fill="#721919" d=" M 412.96 50.95 C 414.78 50.76 415.66 52.38 416.04 53.90 C 414.18 54.19 413.19 52.55 412.96 50.95 Z" />
<path fill="#721919" d=" M 330.96 52.11 C 332.81 52.75 334.24 54.15 334.97 55.97 C 332.68 56.16 330.89 54.39 330.96 52.11 Z" />
<path fill="#721919" d=" M 416.73 54.15 C 419.94 54.96 422.35 57.29 424.22 59.91 C 421.03 59.17 418.85 56.45 416.73 54.15 Z" />
<path fill="#721919" d=" M 339.86 59.09 C 341.39 59.42 342.53 60.50 343.07 61.96 C 341.22 62.39 339.61 60.98 339.86 59.09 Z" />
<path fill="#721919" d=" M 424.94 60.13 C 426.75 59.84 427.77 61.40 428.08 62.97 C 426.22 63.37 425.35 61.60 424.94 60.13 Z" />
<path fill="#721919" d=" M 428.85 63.01 C 430.35 62.57 431.75 63.60 431.92 65.13 C 430.48 65.27 429.18 64.42 428.85 63.01 Z" />
<path fill="#721919" d=" M 345.88 64.08 C 347.40 64.45 348.56 65.54 349.13 66.99 C 347.27 67.40 345.64 65.99 345.88 64.08 Z" />
<path fill="#721919" d=" M 432.87 66.00 C 435.31 67.19 438.04 68.23 439.35 70.81 C 436.85 69.67 434.07 68.69 432.87 66.00 Z" />
<path fill="#721919" d=" M 349.80 67.22 C 351.84 67.54 353.20 69.16 353.97 70.97 C 351.72 71.09 350.02 69.40 349.80 67.22 Z" />
<path fill="#721919" d=" M 355.89 72.04 C 357.41 72.43 358.54 73.53 359.05 75.01 C 357.19 75.38 355.61 73.93 355.89 72.04 Z" />
<path fill="#721919" d=" M 440.86 72.10 C 442.44 72.39 443.66 73.54 443.92 75.15 C 442.13 75.28 440.67 73.91 440.86 72.10 Z" />
<path fill="#721919" d=" M 360.94 76.11 C 362.80 76.76 364.22 78.17 365.04 79.95 C 362.72 80.19 360.91 78.40 360.94 76.11 Z" />
<path fill="#721919" d=" M 447.82 77.24 C 449.61 76.55 451.38 77.88 451.16 79.80 C 449.63 79.61 448.51 78.56 447.82 77.24 Z" />
<path fill="#721919" d=" M 106.34 83.38 C 106.15 82.01 106.71 80.55 108.04 79.98 C 108.52 81.43 108.03 83.15 106.34 83.38 Z" />
<path fill="#721919" d=" M 365.73 80.14 C 367.38 80.26 368.52 81.51 369.04 83.00 C 367.24 83.27 365.68 81.97 365.73 80.14 Z" />
<path fill="#721919" d=" M 451.83 80.05 C 455.06 80.79 457.69 82.88 459.14 85.85 C 456.19 84.70 454.06 82.19 451.83 80.05 Z" />
<path fill="#721919" d=" M 370.95 84.12 C 372.79 84.78 374.20 86.18 375.09 87.90 C 372.74 88.28 370.93 86.40 370.95 84.12 Z" />
<path fill="#721919" d=" M 459.84 86.16 C 463.14 86.77 465.74 88.94 467.20 91.92 C 464.27 90.72 462.13 88.25 459.84 86.16 Z" />
<path fill="#721919" d=" M 375.86 87.99 C 377.77 87.67 378.69 89.43 379.00 91.02 C 377.20 91.09 376.25 89.53 375.86 87.99 Z" />
<path fill="#721919" d=" M 100.23 94.14 C 99.82 92.26 100.63 90.09 102.70 89.73 C 102.63 91.55 101.90 93.27 100.23 94.14 Z" />
<path fill="#721919" d=" M 467.86 92.23 C 469.71 91.53 471.44 92.97 471.13 94.91 C 469.66 94.56 468.54 93.55 467.86 92.23 Z" />
<path fill="#721919" d=" M 385.74 96.22 C 387.37 96.34 388.60 97.47 389.04 99.02 C 387.26 99.32 385.72 98.03 385.74 96.22 Z" />
<path fill="#721919" d=" M 475.88 98.14 C 477.72 97.72 478.73 99.33 479.05 100.90 C 477.24 101.19 476.28 99.65 475.88 98.14 Z" />
<path fill="#721919" d=" M 96.21 102.15 C 95.38 100.69 96.01 98.59 97.97 98.85 C 97.77 100.11 97.21 101.32 96.21 102.15 Z" />
<path fill="#721919" d=" M 390.90 100.04 C 392.41 100.43 393.55 101.53 394.04 103.02 C 392.18 103.37 390.61 101.93 390.90 100.04 Z" />
<path fill="#721919" d=" M 479.73 101.15 C 483.99 103.23 488.78 105.73 491.09 110.06 C 487.04 107.45 482.80 104.94 479.73 101.15 Z" />
<path fill="#721919" d=" M 395.90 104.04 C 397.41 104.43 398.55 105.53 399.05 107.01 C 397.19 107.38 395.61 105.93 395.90 104.04 Z" />
<path fill="#721919" d=" M 91.20 111.28 C 91.39 109.50 91.64 107.11 93.87 106.88 C 93.55 108.62 93.25 110.81 91.20 111.28 Z" />
<path fill="#4f0f10" d=" M 138.55 107.79 C 158.63 127.23 176.04 149.30 196.24 168.73 C 199.15 170.38 197.50 173.76 197.30 176.27 C 196.84 177.18 196.37 178.09 195.90 179.00 C 193.73 179.88 193.38 182.22 193.41 184.30 C 192.92 185.44 192.41 186.57 191.87 187.69 C 189.18 189.33 189.12 192.77 188.30 195.48 C 188.16 195.82 187.89 196.50 187.76 196.84 C 185.29 197.22 184.52 199.90 185.20 202.02 C 184.75 203.26 184.29 204.50 183.85 205.75 C 181.94 205.66 181.43 207.70 182.18 209.14 C 181.52 210.73 180.80 212.30 180.04 213.86 C 178.03 215.39 176.95 217.72 177.19 220.26 C 176.50 221.84 175.76 223.40 175.01 224.96 C 173.12 225.40 172.44 227.28 173.03 229.01 C 172.35 230.65 171.70 232.30 171.04 233.94 C 169.48 234.18 168.61 235.73 169.18 237.20 C 167.61 242.06 165.34 246.65 162.87 251.11 C 128.31 262.76 92.41 271.00 57.37 281.41 C 55.18 282.13 52.89 283.27 50.61 282.21 C 51.74 280.34 52.68 278.37 53.42 276.32 C 55.29 275.63 55.56 273.56 55.86 271.87 C 58.13 268.23 59.81 264.28 61.36 260.30 C 63.29 259.68 63.56 257.57 63.86 255.87 C 66.35 251.82 68.16 247.40 70.00 243.04 C 71.18 242.38 71.79 241.14 71.96 239.84 C 72.74 238.34 73.51 236.84 74.23 235.31 C 76.03 235.25 76.55 233.39 75.97 231.95 C 82.21 219.77 88.32 207.52 94.25 195.19 C 96.67 194.75 97.45 192.16 96.88 190.04 C 97.35 189.10 97.82 188.16 98.28 187.21 C 100.66 186.71 101.45 184.16 100.88 182.04 C 101.35 181.10 101.82 180.16 102.28 179.21 C 104.66 178.71 105.44 176.17 104.89 174.04 C 105.33 173.12 105.77 172.21 106.20 171.29 C 108.00 171.27 108.55 169.42 107.99 167.96 C 108.78 166.39 109.55 164.81 110.29 163.22 C 112.66 162.70 113.44 160.16 112.89 158.04 C 113.34 157.10 113.79 156.16 114.24 155.22 C 116.38 154.98 117.21 152.72 116.72 150.84 C 118.95 147.15 121.04 143.38 122.21 139.20 C 124.27 138.95 125.07 136.85 125.02 135.02 C 125.47 133.78 125.90 132.52 126.31 131.27 C 128.43 130.79 128.60 128.48 128.63 126.69 C 130.95 123.11 133.27 119.46 134.31 115.26 C 136.31 114.89 137.09 112.83 136.95 111.00 C 137.49 109.93 138.02 108.87 138.55 107.79 Z" />
<path fill="#721919" d=" M 400.95 108.11 C 402.81 108.77 404.21 110.20 405.09 111.94 C 402.76 112.21 400.92 110.42 400.95 108.11 Z" />
<path fill="#721919" d=" M 134.31 115.26 C 134.30 113.41 135.10 111.63 136.95 111.00 C 137.09 112.83 136.31 114.89 134.31 115.26 Z" />
<path fill="#721919" d=" M 88.36 117.26 C 88.41 115.17 88.79 112.87 90.92 111.93 C 90.79 113.93 90.57 116.48 88.36 117.26 Z" />
<path fill="#721919" d=" M 405.77 112.21 C 407.79 112.61 409.16 114.18 410.13 115.90 C 407.79 116.20 406.06 114.42 405.77 112.21 Z" />
<path fill="#721919" d=" M 494.88 112.14 C 496.71 111.82 497.76 113.39 498.11 114.97 C 496.25 115.33 495.35 113.60 494.88 112.14 Z" />
<path fill="#721919" d=" M 498.87 115.04 C 500.65 114.62 502.26 115.90 502.20 117.75 C 500.60 117.61 499.38 116.53 498.87 115.04 Z" />
<path fill="#721919" d=" M 410.91 116.05 C 413.21 115.94 414.09 118.29 414.93 120.00 C 412.60 120.04 411.44 118.02 410.91 116.05 Z" />
<path fill="#721919" d=" M 502.84 118.04 C 505.79 119.27 508.29 121.35 510.91 123.15 C 510.94 123.63 510.99 124.60 511.02 125.08 C 508.11 122.93 504.84 121.17 502.84 118.04 Z" />
<path fill="#721919" d=" M 416.89 121.04 C 418.40 121.45 419.54 122.54 420.13 123.98 C 418.25 124.39 416.61 122.96 416.89 121.04 Z" />
<path fill="#721919" d=" M 420.80 124.23 C 422.83 124.57 424.20 126.16 425.03 127.95 C 422.75 128.13 421.04 126.41 420.80 124.23 Z" />
<path fill="#721919" d=" M 126.31 131.27 C 126.40 129.50 126.61 127.29 128.63 126.69 C 128.60 128.48 128.43 130.79 126.31 131.27 Z" />
<path fill="#d13c44" d=" M 232.28 127.15 C 236.40 126.00 237.63 131.74 240.35 133.65 C 241.70 134.94 244.98 138.66 240.91 138.06 C 240.28 138.12 239.01 138.23 238.38 138.29 C 232.97 137.16 228.87 140.91 223.90 141.01 C 226.53 136.42 228.86 131.38 232.28 127.15 Z" />
<path fill="#721919" d=" M 425.72 128.14 C 427.33 128.25 428.43 129.44 429.08 130.82 C 427.27 131.33 425.62 130.01 425.72 128.14 Z" />
<path fill="#721919" d=" M 79.36 134.26 C 79.40 132.19 79.75 129.87 81.93 129.01 C 81.78 130.98 81.56 133.50 79.36 134.26 Z" />
<path fill="#721919" d=" M 429.67 131.18 C 431.89 132.31 433.63 134.11 435.30 135.93 C 432.45 135.81 430.88 133.42 429.67 131.18 Z" />
<path fill="#721919" d=" M 122.21 139.20 C 122.33 137.37 123.15 135.60 125.02 135.02 C 125.07 136.85 124.27 138.95 122.21 139.20 Z" />
<path fill="#721919" d=" M 436.05 136.13 C 438.25 136.12 439.16 138.34 440.05 139.98 C 437.68 140.18 436.45 138.15 436.05 136.13 Z" />
<path fill="#4f0f10" d=" M 238.38 138.29 C 239.01 138.23 240.28 138.12 240.91 138.06 C 244.69 143.65 233.06 145.96 230.14 142.78 C 227.97 136.97 237.09 142.53 238.38 138.29 Z" />
<path fill="#721919" d=" M 440.74 140.22 C 442.81 140.51 444.18 142.14 444.97 143.96 C 442.71 144.07 441.04 142.38 440.74 140.22 Z" />
<path fill="#721919" d=" M 73.97 144.12 C 73.40 142.61 74.07 140.70 75.94 140.84 C 75.75 142.15 75.18 143.46 73.97 144.12 Z" />
<path fill="#721919" d=" M 71.19 149.15 C 71.41 147.36 72.19 145.66 73.92 144.89 C 74.20 146.78 73.30 148.96 71.19 149.15 Z" />
<path fill="#721919" d=" M 446.89 145.05 C 448.38 145.47 449.53 146.53 450.18 147.94 C 448.30 148.42 446.61 146.99 446.89 145.05 Z" />
<path fill="#d13c44" d=" M 266.18 152.32 C 272.67 151.09 278.83 147.61 285.58 148.26 C 292.21 153.34 296.29 161.21 303.53 165.52 C 310.85 170.70 315.18 179.70 323.12 183.79 L 323.86 184.09 C 329.73 189.26 333.70 196.56 340.70 200.38 C 343.64 203.70 340.01 207.71 339.00 211.00 C 332.07 230.16 324.23 249.01 317.25 268.16 C 312.64 275.50 314.29 287.55 304.97 290.95 C 303.41 291.49 301.82 291.92 300.23 292.31 C 297.02 292.91 293.87 293.76 290.80 294.84 C 283.06 297.30 275.15 299.22 267.26 301.17 C 264.62 300.94 262.09 301.60 259.89 303.05 C 258.10 303.58 256.29 303.98 254.48 304.40 C 251.14 304.80 247.54 304.65 244.87 306.97 C 242.39 307.90 239.84 308.62 237.28 309.26 C 234.62 308.89 231.84 308.98 229.90 311.08 C 228.06 311.61 226.19 311.96 224.32 312.33 C 220.93 312.64 217.67 314.02 214.25 313.87 C 197.17 292.91 179.70 272.23 162.87 251.11 C 165.34 246.65 167.61 242.06 169.18 237.20 C 170.49 236.65 171.29 235.37 171.04 233.94 C 171.70 232.30 172.35 230.65 173.03 229.01 C 174.37 228.10 175.17 226.58 175.01 224.96 C 175.76 223.40 176.50 221.84 177.19 220.26 C 178.33 218.22 179.31 216.08 180.04 213.86 C 180.80 212.30 181.52 210.73 182.18 209.14 C 183.23 208.32 183.79 207.06 183.85 205.75 C 184.29 204.50 184.75 203.26 185.20 202.02 C 186.59 200.59 187.47 198.81 187.76 196.84 C 187.89 196.50 188.16 195.82 188.30 195.48 C 190.46 193.43 191.00 190.41 191.87 187.69 C 192.41 186.57 192.92 185.44 193.41 184.30 C 195.55 183.45 195.79 180.98 195.90 179.00 C 196.37 178.09 196.84 177.18 197.30 176.27 C 199.00 173.55 200.11 169.52 204.54 170.35 C 225.05 164.21 245.71 158.59 266.18 152.32 Z" />
<path fill="#721919" d=" M 450.95 148.07 C 453.24 147.93 454.09 150.32 454.93 152.00 C 452.61 152.04 451.45 150.05 450.95 148.07 Z" />
<path fill="#721919" d=" M 67.20 157.23 C 68.05 154.57 69.36 152.11 70.88 149.79 C 69.89 152.38 68.64 154.86 67.20 157.23 Z" />
<path fill="#721919" d=" M 114.24 155.22 C 114.40 153.44 115.13 151.77 116.72 150.84 C 117.21 152.72 116.38 154.98 114.24 155.22 Z" />
<path fill="#721919" d=" M 456.89 153.04 C 458.41 153.42 459.55 154.53 460.04 156.02 C 458.18 156.37 456.61 154.92 456.89 153.04 Z" />
<path fill="#721919" d=" M 461.90 157.04 C 463.41 157.43 464.55 158.53 465.04 160.01 C 463.18 160.37 461.61 158.93 461.90 157.04 Z" />
<path fill="#721919" d=" M 110.29 163.22 C 110.47 161.20 111.37 159.38 112.89 158.04 C 113.44 160.16 112.66 162.70 110.29 163.22 Z" />
<path fill="#4f0f10" d=" M 276.93 159.47 C 279.85 157.47 282.16 158.77 284.79 160.27 C 296.60 173.47 309.78 185.66 323.06 196.98 L 323.84 197.25 C 326.89 200.17 331.74 203.27 329.08 208.03 L 328.69 208.68 C 327.06 210.83 326.09 213.42 326.01 216.13 C 325.88 217.42 325.82 218.82 324.79 219.76 C 322.87 221.77 322.67 224.65 321.89 227.19 L 321.57 227.94 C 320.42 228.87 319.79 230.20 319.88 231.70 L 319.72 232.54 C 318.15 234.77 317.07 237.35 317.01 240.11 C 316.89 241.54 316.78 243.05 315.67 244.10 C 314.51 245.38 313.81 246.99 313.99 248.75 C 314.00 249.91 313.61 250.92 312.81 251.78 C 309.77 257.48 307.53 263.80 305.94 270.10 C 305.47 272.09 305.08 274.17 304.00 275.94 C 301.57 278.07 298.64 279.45 295.74 280.80 C 294.00 281.71 292.06 281.97 290.13 282.07 C 287.60 282.19 285.11 282.82 282.82 283.89 C 280.41 285.07 277.77 285.69 275.12 286.00 C 272.61 286.25 270.11 286.82 267.82 287.89 C 265.09 289.25 262.05 289.79 259.05 290.12 C 255.50 290.54 252.03 291.46 248.72 292.76 C 247.23 293.35 245.73 293.98 244.10 293.95 C 240.51 294.20 236.70 294.65 233.63 296.65 C 232.02 297.84 230.04 297.96 228.13 298.08 C 225.52 298.19 223.02 298.98 220.59 299.84 L 219.71 300.12 C 218.57 299.80 217.44 299.48 216.33 299.12 L 215.89 298.37 C 214.76 296.12 212.91 294.39 211.17 292.61 L 211.00 291.73 C 211.08 290.18 209.87 289.13 208.47 288.79 C 208.22 288.54 207.71 288.05 207.45 287.80 C 206.70 284.22 203.20 282.57 200.93 280.06 C 200.73 279.78 200.32 279.23 200.11 278.95 C 193.80 270.06 186.41 261.92 179.56 253.49 C 175.97 251.92 177.58 248.03 177.94 244.95 C 178.66 243.30 179.52 241.69 180.44 240.14 C 181.32 239.37 182.08 238.40 182.01 237.17 C 182.10 236.76 182.28 235.93 182.38 235.52 C 184.60 233.58 185.39 230.71 186.12 227.97 C 186.52 226.72 186.96 225.47 187.53 224.28 C 188.79 223.81 189.22 222.52 189.16 221.27 C 189.44 219.48 190.49 217.93 191.37 216.39 C 192.74 214.48 193.80 212.36 194.23 210.04 C 194.52 208.99 194.92 207.99 195.45 207.03 C 196.82 205.78 197.85 204.13 197.92 202.23 C 197.95 200.80 198.65 199.59 199.50 198.50 C 201.08 196.66 201.42 194.20 202.08 191.95 C 202.40 190.98 202.88 190.09 203.53 189.28 C 204.81 188.82 205.27 187.50 205.06 186.23 L 205.10 185.31 C 206.48 183.26 207.98 181.29 209.35 179.23 C 211.55 178.13 213.97 177.66 216.34 177.12 C 218.30 176.93 220.16 176.27 221.91 175.41 C 230.15 172.36 239.00 171.08 247.31 168.14 C 249.07 168.25 250.87 167.91 252.07 166.51 C 253.78 165.91 255.57 165.51 257.35 165.12 C 259.29 164.92 261.13 164.23 262.93 163.49 C 265.68 162.51 268.50 161.76 271.35 161.12 C 273.29 160.91 275.13 160.23 276.93 159.47 Z" />
<path fill="#721919" d=" M 271.35 161.12 C 271.48 158.80 275.26 158.15 276.93 159.47 C 275.13 160.23 273.29 160.91 271.35 161.12 Z" />
<path fill="#721919" d=" M 64.24 163.31 C 64.17 161.95 64.75 160.60 66.00 159.96 C 66.55 161.41 66.02 163.24 64.24 163.31 Z" />
<path fill="#721919" d=" M 284.79 160.27 C 292.95 163.03 296.67 175.22 305.76 178.34 C 311.48 184.58 317.32 190.74 323.06 196.98 C 309.78 185.66 296.60 173.47 284.79 160.27 Z" />
<path fill="#721919" d=" M 466.90 161.06 C 468.36 161.50 469.50 162.53 470.27 163.84 C 468.37 164.47 466.59 163.04 466.90 161.06 Z" />
<path fill="#721919" d=" M 257.35 165.12 C 257.49 162.80 261.27 162.14 262.93 163.49 C 261.13 164.23 259.29 164.92 257.35 165.12 Z" />
<path fill="#721919" d=" M 471.19 164.16 C 473.18 165.61 470.86 169.25 470.46 171.41 C 447.36 243.79 424.41 316.17 401.54 388.64 C 399.36 389.31 397.11 389.64 394.88 390.01 C 396.24 387.99 401.62 388.90 400.56 386.31 C 372.98 357.86 346.18 328.79 319.28 299.72 C 315.23 295.97 311.41 289.77 304.97 290.95 C 314.29 287.55 312.64 275.50 317.25 268.16 C 324.23 249.01 332.07 230.16 339.00 211.00 C 340.01 207.71 343.64 203.70 340.70 200.38 C 333.70 196.56 329.73 189.26 323.86 184.09 C 331.66 187.31 335.03 196.51 342.61 200.40 C 348.13 201.37 353.73 198.74 359.10 197.23 C 393.86 187.78 428.43 177.90 463.12 168.20 C 465.98 167.12 470.40 167.85 471.19 164.16 Z" />
<path fill="#721919" d=" M 247.31 168.14 C 247.39 166.37 250.69 165.62 252.07 166.51 C 250.87 167.91 249.07 168.25 247.31 168.14 Z" />
<path fill="#721919" d=" M 59.98 171.09 C 59.40 169.58 60.08 167.66 61.95 167.85 C 61.77 169.15 61.18 170.42 59.98 171.09 Z" />
<path fill="#721919" d=" M 106.20 171.29 C 106.17 169.94 106.77 168.61 107.99 167.96 C 108.55 169.42 108.00 171.27 106.20 171.29 Z" />
<path fill="#721919" d=" M 57.24 176.13 C 56.83 174.24 57.65 171.98 59.81 171.78 C 59.64 173.57 58.84 175.22 57.24 176.13 Z" />
<path fill="#721919" d=" M 102.28 179.21 C 102.47 177.19 103.37 175.38 104.89 174.04 C 105.44 176.17 104.66 178.71 102.28 179.21 Z" />
<path fill="#721919" d=" M 216.34 177.12 C 216.51 174.83 220.22 174.18 221.91 175.41 C 220.16 176.27 218.30 176.93 216.34 177.12 Z" />
<path fill="#721919" d=" M 193.41 184.30 C 193.38 182.22 193.73 179.88 195.90 179.00 C 195.79 180.98 195.55 183.45 193.41 184.30 Z" />
<path fill="#721919" d=" M 205.10 185.31 C 204.31 182.40 206.69 179.88 209.35 179.23 C 207.98 181.29 206.48 183.26 205.10 185.31 Z" />
<path fill="#721919" d=" M 52.22 185.94 C 51.50 183.82 52.33 181.05 54.89 180.92 C 54.45 182.81 53.57 184.54 52.22 185.94 Z" />
<path fill="#721919" d=" M 98.28 187.21 C 98.47 185.20 99.37 183.39 100.88 182.04 C 101.45 184.16 100.66 186.71 98.28 187.21 Z" />
<path fill="#721919" d=" M 203.53 189.28 C 202.63 188.30 203.60 185.74 205.06 186.23 C 205.27 187.50 204.81 188.82 203.53 189.28 Z" />
<path fill="#721919" d=" M 47.21 195.24 C 48.39 192.22 48.78 188.33 51.87 186.58 C 50.58 189.60 48.98 192.47 47.21 195.24 Z" />
<path fill="#721919" d=" M 188.30 195.48 C 189.12 192.77 189.18 189.33 191.87 187.69 C 191.00 190.41 190.46 193.43 188.30 195.48 Z" />
<path fill="#721919" d=" M 94.25 195.19 C 94.49 193.19 95.39 191.39 96.88 190.04 C 97.45 192.16 96.67 194.75 94.25 195.19 Z" />
<path fill="#721919" d=" M 199.50 198.50 C 199.95 196.16 199.26 192.88 202.08 191.95 C 201.42 194.20 201.08 196.66 199.50 198.50 Z" />
<path fill="#721919" d=" M 185.20 202.02 C 184.52 199.90 185.29 197.22 187.76 196.84 C 187.47 198.81 186.59 200.59 185.20 202.02 Z" />
<path fill="#721919" d=" M 323.84 197.25 C 328.28 197.37 334.56 205.08 329.08 208.03 C 331.74 203.27 326.89 200.17 323.84 197.25 Z" />
<path fill="#721919" d=" M 43.34 203.25 C 43.41 201.19 43.76 198.89 45.90 198.00 C 45.78 199.98 45.57 202.53 43.34 203.25 Z" />
<path fill="#721919" d=" M 195.45 207.03 C 194.53 205.38 195.89 202.08 197.92 202.23 C 197.85 204.13 196.82 205.78 195.45 207.03 Z" />
<path fill="#721919" d=" M 38.13 213.24 C 37.86 210.16 40.01 207.86 42.03 205.86 C 41.27 208.58 39.78 210.98 38.13 213.24 Z" />
<path fill="#721919" d=" M 182.18 209.14 C 181.43 207.70 181.94 205.66 183.85 205.75 C 183.79 207.06 183.23 208.32 182.18 209.14 Z" />
<path fill="#721919" d=" M 326.01 216.13 C 326.09 213.42 327.06 210.83 328.69 208.68 C 328.56 211.28 328.03 214.34 326.01 216.13 Z" />
<path fill="#721919" d=" M 191.37 216.39 C 191.16 214.11 192.17 211.09 194.23 210.04 C 193.80 212.36 192.74 214.48 191.37 216.39 Z" />
<path fill="#721919" d=" M 177.19 220.26 C 176.95 217.72 178.03 215.39 180.04 213.86 C 179.31 216.08 178.33 218.22 177.19 220.26 Z" />
<path fill="#721919" d=" M 321.89 227.19 C 322.67 224.65 322.87 221.77 324.79 219.76 C 324.19 222.34 324.76 225.89 321.89 227.19 Z" />
<path fill="#721919" d=" M 31.28 226.06 C 30.47 223.92 31.28 221.15 33.83 220.89 C 33.42 222.81 32.55 224.56 31.28 226.06 Z" />
<path fill="#721919" d=" M 187.53 224.28 C 186.58 223.27 187.68 220.69 189.16 221.27 C 189.22 222.52 188.79 223.81 187.53 224.28 Z" />
<path fill="#721919" d=" M 173.03 229.01 C 172.44 227.28 173.12 225.40 175.01 224.96 C 175.17 226.58 174.37 228.10 173.03 229.01 Z" />
<path fill="#721919" d=" M 182.38 235.52 C 183.26 232.94 183.32 229.24 186.12 227.97 C 185.39 230.71 184.60 233.58 182.38 235.52 Z" />
<path fill="#721919" d=" M 319.88 231.70 C 319.79 230.20 320.42 228.87 321.57 227.94 C 322.68 229.10 321.57 232.11 319.88 231.70 Z" />
<path fill="#721919" d=" M 22.08 243.23 C 24.15 238.21 25.76 232.40 29.82 228.69 C 27.66 233.73 26.03 239.22 22.08 243.23 Z" />
<path fill="#721919" d=" M 74.23 235.31 C 74.17 233.95 74.75 232.61 75.97 231.95 C 76.55 233.39 76.03 235.25 74.23 235.31 Z" />
<path fill="#721919" d=" M 317.01 240.11 C 317.07 237.35 318.15 234.77 319.72 232.54 C 319.59 235.17 319.06 238.30 317.01 240.11 Z" />
<path fill="#721919" d=" M 169.18 237.20 C 168.61 235.73 169.48 234.18 171.04 233.94 C 171.29 235.37 170.49 236.65 169.18 237.20 Z" />
<path fill="#721919" d=" M 180.44 240.14 C 179.18 239.13 180.43 236.40 182.01 237.17 C 182.08 238.40 181.32 239.37 180.44 240.14 Z" />
<path fill="#721919" d=" M 70.00 243.04 C 69.38 241.54 70.10 239.62 71.96 239.84 C 71.79 241.14 71.18 242.38 70.00 243.04 Z" />
<path fill="#721919" d=" M 313.99 248.75 C 313.81 246.99 314.51 245.38 315.67 244.10 C 316.73 245.52 315.83 248.70 313.99 248.75 Z" />
<path fill="#721919" d=" M 181.15 257.91 C 178.70 254.17 171.96 248.83 177.94 244.95 C 177.58 248.03 175.97 251.92 179.56 253.49 C 186.41 261.92 193.80 270.06 200.11 278.95 C 192.51 273.57 187.89 264.28 181.15 257.91 Z" />
<path fill="#721919" d=" M 19.20 249.29 C 19.17 247.94 19.77 246.59 21.02 245.97 C 21.55 247.43 20.99 249.25 19.20 249.29 Z" />
<path fill="#721919" d=" M 459.23 427.09 C 476.03 366.55 494.77 306.49 510.77 245.76 C 511.32 304.50 510.82 363.26 511.02 422.01 C 511.29 443.54 503.02 465.24 488.40 481.02 C 485.13 473.86 476.86 470.13 472.33 463.68 C 467.92 456.50 461.04 451.62 455.67 445.29 C 454.44 445.06 453.20 444.93 451.95 444.90 C 457.70 441.09 456.47 432.71 459.23 427.09 Z" />
<path fill="#721919" d=" M 57.37 281.41 C 92.41 271.00 128.31 262.76 162.87 251.11 C 179.70 272.23 197.17 292.91 214.25 313.87 C 217.67 314.02 220.93 312.64 224.32 312.33 C 220.26 315.69 212.69 313.07 212.04 320.02 C 194.86 361.71 176.55 402.95 159.99 444.89 C 161.38 445.03 162.76 445.13 164.15 445.18 C 162.99 445.30 160.66 445.53 159.49 445.65 C 123.07 392.70 86.45 339.89 50.04 286.95 C 48.42 285.40 49.57 283.68 50.61 282.21 C 52.89 283.27 55.18 282.13 57.37 281.41 Z" />
<path fill="#721919" d=" M 16.29 255.19 C 15.39 253.76 15.96 251.60 17.93 251.82 C 17.76 253.09 17.22 254.29 16.29 255.19 Z" />
<path fill="#721919" d=" M 305.94 270.10 C 307.53 263.80 309.77 257.48 312.81 251.78 C 311.73 258.16 309.49 264.79 305.94 270.10 Z" />
<path fill="#721919" d=" M 61.36 260.30 C 61.35 258.49 61.59 256.06 63.86 255.87 C 63.56 257.57 63.29 259.68 61.36 260.30 Z" />
<path fill="#721919" d=" M 7.17 272.19 C 6.62 270.71 7.49 269.20 9.02 268.92 C 9.32 270.36 8.50 271.65 7.17 272.19 Z" />
<path fill="#721919" d=" M 53.42 276.32 C 53.33 274.50 53.57 272.05 55.86 271.87 C 55.56 273.56 55.29 275.63 53.42 276.32 Z" />
<path fill="#721919" d=" M 295.74 280.80 C 298.64 279.45 301.57 278.07 304.00 275.94 C 303.98 279.94 298.93 280.99 295.74 280.80 Z" />
<path fill="#721919" d=" M 0.99 281.16 C 1.48 280.87 2.46 280.30 2.95 280.01 C 2.94 281.50 2.29 282.88 1.35 284.02 C 1.26 283.31 1.08 281.87 0.99 281.16 Z" />
<path fill="#721919" d=" M 200.93 280.06 C 203.20 282.57 206.70 284.22 207.45 287.80 C 205.28 285.37 200.61 283.88 200.93 280.06 Z" />
<path fill="#721919" d=" M 282.82 283.89 C 285.11 282.82 287.60 282.19 290.13 282.07 C 288.40 284.32 285.34 284.08 282.82 283.89 Z" />
<path fill="#721919" d=" M 267.82 287.89 C 270.11 286.82 272.61 286.25 275.12 286.00 C 273.49 288.36 270.32 288.06 267.82 287.89 Z" />
<path fill="#721919" d=" M 208.47 288.79 C 209.87 289.13 211.08 290.18 211.00 291.73 C 209.57 292.36 207.66 290.13 208.47 288.79 Z" />
<path fill="#721919" d=" M 248.72 292.76 C 252.03 291.46 255.50 290.54 259.05 290.12 C 257.12 292.58 252.04 292.75 248.72 292.76 Z" />
<path fill="#4f0f10" d=" M 300.23 292.31 C 301.82 291.92 303.41 291.49 304.97 290.95 C 311.41 289.77 315.23 295.97 319.28 299.72 C 346.18 328.79 372.98 357.86 400.56 386.31 C 401.62 388.90 396.24 387.99 394.88 390.01 C 385.99 392.30 377.04 394.40 368.04 396.20 C 365.84 395.62 363.72 396.51 362.01 397.86 C 358.40 398.87 354.70 399.49 351.04 400.20 C 348.84 399.62 346.73 400.53 345.00 401.83 C 341.38 402.77 337.75 403.69 334.05 404.25 C 331.85 403.60 329.74 404.52 328.00 405.82 C 323.42 407.27 318.70 408.20 314.03 409.30 C 311.85 408.48 309.03 408.30 307.90 410.78 C 305.67 411.15 303.46 411.64 301.25 412.12 C 298.70 412.32 296.21 412.97 293.85 413.94 C 290.63 414.86 287.41 415.76 284.11 416.26 C 281.97 416.17 279.84 416.69 278.00 417.77 C 268.85 420.50 259.46 422.41 250.10 424.23 C 247.97 424.17 245.83 424.65 244.06 425.87 C 235.26 428.48 226.28 430.46 217.28 432.23 C 214.00 432.56 210.23 432.46 207.70 434.86 C 205.19 435.48 202.65 435.94 200.09 436.24 C 197.96 436.17 195.84 436.69 194.00 437.78 C 189.43 439.31 184.66 440.11 180.00 441.28 C 177.82 440.46 175.02 440.32 173.90 442.78 C 170.63 443.52 167.43 444.51 164.15 445.18 C 162.76 445.13 161.38 445.03 159.99 444.89 C 176.55 402.95 194.86 361.71 212.04 320.02 C 212.69 313.07 220.26 315.69 224.32 312.33 C 226.19 311.96 228.06 311.61 229.90 311.08 C 232.39 310.59 234.85 309.98 237.28 309.26 C 239.84 308.62 242.39 307.90 244.87 306.97 C 248.07 306.21 252.17 307.20 254.48 304.40 C 256.29 303.98 258.10 303.58 259.89 303.05 C 262.45 302.90 264.93 302.23 267.26 301.17 C 275.15 299.22 283.06 297.30 290.80 294.84 C 293.95 294.05 297.10 293.21 300.23 292.31 Z" />
<path fill="#721919" d=" M 290.80 294.84 C 293.87 293.76 297.02 292.91 300.23 292.31 C 297.10 293.21 293.95 294.05 290.80 294.84 Z" />
<path fill="#721919" d=" M 211.17 292.61 C 212.91 294.39 214.76 296.12 215.89 298.37 C 213.63 297.34 210.61 295.49 211.17 292.61 Z" />
<path fill="#721919" d=" M 233.63 296.65 C 236.70 294.65 240.51 294.20 244.10 293.95 C 241.62 296.30 237.12 296.36 233.63 296.65 Z" />
<path fill="#721919" d=" M 220.59 299.84 C 223.02 298.98 225.52 298.19 228.13 298.08 C 226.34 300.39 223.17 300.08 220.59 299.84 Z" />
<path fill="#721919" d=" M 216.33 299.12 C 217.44 299.48 218.57 299.80 219.71 300.12 C 219.69 302.23 214.90 301.24 216.33 299.12 Z" />
<path fill="#721919" d=" M 259.89 303.05 C 262.09 301.60 264.62 300.94 267.26 301.17 C 264.93 302.23 262.45 302.90 259.89 303.05 Z" />
<path fill="#721919" d=" M 244.87 306.97 C 247.54 304.65 251.14 304.80 254.48 304.40 C 252.17 307.20 248.07 306.21 244.87 306.97 Z" />
<path fill="#721919" d=" M 1.22 308.74 C 2.11 312.45 3.88 315.83 6.03 318.95 C 46.48 382.90 86.51 447.07 127.17 510.89 C 100.98 510.57 72.80 514.68 48.96 501.04 C 20.18 486.10 0.30 454.71 0.98 422.01 C 1.18 384.25 0.68 346.49 1.22 308.74 Z" />
<path fill="#721919" d=" M 229.90 311.08 C 231.84 308.98 234.62 308.89 237.28 309.26 C 234.85 309.98 232.39 310.59 229.90 311.08 Z" />
<path fill="#721919" d=" M 362.01 397.86 C 363.72 396.51 365.84 395.62 368.04 396.20 C 366.51 397.98 364.24 398.57 362.01 397.86 Z" />
<path fill="#721919" d=" M 345.00 401.83 C 346.73 400.53 348.84 399.62 351.04 400.20 C 349.51 401.98 347.23 402.58 345.00 401.83 Z" />
<path fill="#721919" d=" M 328.00 405.82 C 329.74 404.52 331.85 403.60 334.05 404.25 C 332.48 405.98 330.22 406.58 328.00 405.82 Z" />
<path fill="#721919" d=" M 307.90 410.78 C 309.03 408.30 311.85 408.48 314.03 409.30 C 312.13 410.27 310.03 410.79 307.90 410.78 Z" />
<path fill="#721919" d=" M 293.85 413.94 C 296.21 412.97 298.70 412.32 301.25 412.12 C 299.10 413.75 296.47 414.10 293.85 413.94 Z" />
<path fill="#721919" d=" M 278.00 417.77 C 279.84 416.69 281.97 416.17 284.11 416.26 C 282.94 418.66 280.18 418.50 278.00 417.77 Z" />
<path fill="#721919" d=" M 244.06 425.87 C 245.83 424.65 247.97 424.17 250.10 424.23 C 248.97 426.62 246.24 426.49 244.06 425.87 Z" />
<path fill="#721919" d=" M 207.70 434.86 C 210.23 432.46 214.00 432.56 217.28 432.23 C 214.31 433.80 210.95 434.21 207.70 434.86 Z" />
<path fill="#721919" d=" M 194.00 437.78 C 195.84 436.69 197.96 436.17 200.09 436.24 C 198.96 438.67 196.18 438.49 194.00 437.78 Z" />
<path fill="#721919" d=" M 173.90 442.78 C 175.02 440.32 177.82 440.46 180.00 441.28 C 178.12 442.28 176.02 442.80 173.90 442.78 Z" />
<path fill="#4f0f10" d=" M 446.29 446.28 C 448.19 445.88 450.07 445.40 451.95 444.90 C 453.20 444.93 454.44 445.06 455.67 445.29 C 461.04 451.62 467.92 456.50 472.33 463.68 C 476.86 470.13 485.13 473.86 488.40 481.02 C 485.95 483.36 483.92 486.67 480.70 487.94 C 479.16 487.97 477.99 489.14 477.92 490.67 C 465.80 501.47 449.31 508.80 432.84 509.99 C 431.53 509.79 430.19 509.92 429.02 510.55 C 338.69 511.45 248.15 511.01 157.77 510.78 C 159.84 510.19 161.91 509.59 163.98 508.99 C 165.38 509.43 167.08 509.40 168.02 508.08 L 168.76 507.86 C 171.40 508.11 174.02 507.73 176.26 506.24 C 178.16 505.95 180.05 505.61 181.88 505.04 C 185.06 504.76 188.14 503.99 191.22 503.22 C 194.42 502.52 197.60 501.72 200.77 500.90 C 204.69 500.45 208.60 499.68 212.28 498.25 C 214.45 497.84 216.59 497.33 218.74 496.84 C 222.66 496.43 226.82 496.40 230.27 494.26 C 232.16 493.96 234.05 493.62 235.89 493.07 C 238.75 492.77 241.55 492.13 244.29 491.29 C 246.14 490.90 247.97 490.45 249.79 489.95 C 252.32 489.62 254.82 489.01 257.23 488.14 L 257.98 487.92 C 259.38 488.40 261.03 488.41 262.14 487.27 C 265.40 486.72 268.62 485.90 271.77 484.87 C 275.73 484.85 279.73 484.07 283.27 482.24 C 285.46 481.94 287.65 481.55 289.79 480.95 C 292.63 480.53 295.41 479.84 298.23 479.26 C 301.47 478.72 304.65 477.87 307.77 476.87 C 312.06 476.88 316.26 475.74 320.27 474.26 C 323.59 473.98 326.79 473.02 329.89 471.83 C 331.30 472.38 333.01 472.45 334.14 471.26 C 338.78 470.47 343.33 469.25 347.85 467.92 C 350.46 468.10 353.05 467.70 355.26 466.22 C 357.46 465.93 359.64 465.54 361.79 464.96 C 365.68 464.42 369.58 463.66 373.27 462.27 C 375.46 461.95 377.65 461.54 379.79 460.96 C 383.68 460.42 387.58 459.68 391.27 458.25 C 394.55 457.93 397.79 457.19 400.87 455.98 C 404.09 455.99 407.24 455.30 410.29 454.28 C 413.21 453.76 416.09 453.02 418.87 451.98 C 421.78 452.07 424.62 451.46 427.26 450.23 C 430.55 449.94 433.79 449.20 436.87 447.98 C 440.09 447.99 443.25 447.31 446.29 446.28 Z" />
<path fill="#721919" d=" M 436.87 447.98 C 439.80 446.53 443.02 445.80 446.29 446.28 C 443.25 447.31 440.09 447.99 436.87 447.98 Z" />
<path fill="#721919" d=" M 418.87 451.98 C 421.49 450.74 424.33 449.99 427.26 450.23 C 424.62 451.46 421.78 452.07 418.87 451.98 Z" />
<path fill="#721919" d=" M 400.87 455.98 C 403.80 454.53 407.02 453.80 410.29 454.28 C 407.24 455.30 404.09 455.99 400.87 455.98 Z" />
<path fill="#721919" d=" M 379.79 460.96 C 383.11 458.66 387.31 458.12 391.27 458.25 C 387.58 459.68 383.68 460.42 379.79 460.96 Z" />
<path fill="#721919" d=" M 361.79 464.96 C 365.11 462.65 369.31 462.11 373.27 462.27 C 369.58 463.66 365.68 464.42 361.79 464.96 Z" />
<path fill="#721919" d=" M 347.85 467.92 C 350.20 466.95 352.69 466.27 355.26 466.22 C 353.05 467.70 350.46 468.10 347.85 467.92 Z" />
<path fill="#721919" d=" M 329.89 471.83 C 330.94 470.51 332.73 470.60 334.14 471.26 C 333.01 472.45 331.30 472.38 329.89 471.83 Z" />
<path fill="#721919" d=" M 307.77 476.87 C 311.69 475.14 315.96 474.01 320.27 474.26 C 316.26 475.74 312.06 476.88 307.77 476.87 Z" />
<path fill="#721919" d=" M 289.79 480.95 C 292.24 479.10 295.24 479.20 298.23 479.26 C 295.41 479.84 292.63 480.53 289.79 480.95 Z" />
<path fill="#721919" d=" M 271.77 484.87 C 275.36 483.20 279.32 482.41 283.27 482.24 C 279.73 484.07 275.73 484.85 271.77 484.87 Z" />
<path fill="#721919" d=" M 257.98 487.92 C 258.90 486.46 260.76 486.59 262.14 487.27 C 261.03 488.41 259.38 488.40 257.98 487.92 Z" />
<path fill="#721919" d=" M 249.79 489.95 C 251.89 488.16 254.57 487.87 257.23 488.14 C 254.82 489.01 252.32 489.62 249.79 489.95 Z" />
<path fill="#721919" d=" M 477.92 490.67 C 477.99 489.14 479.16 487.97 480.70 487.94 C 481.30 489.31 479.29 491.30 477.92 490.67 Z" />
<path fill="#721919" d=" M 235.89 493.07 C 238.37 491.31 241.32 490.77 244.29 491.29 C 241.55 492.13 238.75 492.77 235.89 493.07 Z" />
<path fill="#721919" d=" M 218.74 496.84 C 222.10 494.48 226.32 494.50 230.27 494.26 C 226.82 496.40 222.66 496.43 218.74 496.84 Z" />
<path fill="#721919" d=" M 200.77 500.90 C 204.17 498.73 208.31 498.09 212.28 498.25 C 208.60 499.68 204.69 500.45 200.77 500.90 Z" />
<path fill="#721919" d=" M 181.88 505.04 C 184.70 503.29 187.95 503.05 191.22 503.22 C 188.14 503.99 185.06 504.76 181.88 505.04 Z" />
<path fill="#721919" d=" M 168.76 507.86 C 171.17 506.95 173.68 506.29 176.26 506.24 C 174.02 507.73 171.40 508.11 168.76 507.86 Z" />
<path fill="#721919" d=" M 163.98 508.99 C 164.80 507.50 166.62 507.57 168.02 508.08 C 167.08 509.40 165.38 509.43 163.98 508.99 Z" />
<path fill="#d13c44" d=" M 429.02 510.55 C 430.19 509.92 431.53 509.79 432.84 509.99 C 432.99 511.83 429.84 511.67 429.02 510.55 Z" />
</svg>
